<svg version="1.2" preserveAspectRatio="xMidYMid meet" viewBox="30.100425 136.607246721426 315.75 98.24999764200001" zoomAndPan="magnify" xmlns:xlink="http://www.w3.org/1999/xlink" xmlns="http://www.w3.org/2000/svg" style="max-height: 500px" width="315.75" height="98.24999764200001"><defs><clipPath id="2015c42377"><path d="M 37.511719 184.472656 L 49.933594 184.472656 L 49.933594 213.554688 L 37.511719 213.554688 Z M 37.511719 184.472656"/></clipPath><clipPath id="8d4e82dcc0"><path d="M 166.90625 144.503906 L 192.117188 144.503906 L 192.117188 166.167969 L 166.90625 166.167969 Z M 166.90625 144.503906"/></clipPath><clipPath id="df18e62581"><path d="M 192.117188 155.335938 L 185.816406 166.167969 L 173.210938 166.167969 L 166.90625 155.335938 L 173.210938 144.503906 L 185.816406 144.503906 Z M 192.117188 155.335938"/></clipPath><linearGradient id="c65f6f8cf4" y2="128" gradientUnits="userSpaceOnUse" x2="297.891005" y1="128" gradientTransform="matrix(0.084631,0.000000000000000021,-0.000000000000000021,0.084631,166.9077,144.503497)" x1="0.00020141"><stop offset="0" style="stop-color:#62bfd4;stop-opacity:1;"/><stop offset="0.00390625" style="stop-color:#62bfd4;stop-opacity:1;"/><stop offset="0.0078125" style="stop-color:#63bfd3;stop-opacity:1;"/><stop offset="0.0117187" style="stop-color:#64bfd3;stop-opacity:1;"/><stop offset="0.015625" style="stop-color:#64bfd2;stop-opacity:1;"/><stop offset="0.0195312" style="stop-color:#65c0d2;stop-opacity:1;"/><stop offset="0.0234375" style="stop-color:#65c0d2;stop-opacity:1;"/><stop offset="0.0273437" style="stop-color:#66c0d1;stop-opacity:1;"/><stop offset="0.03125" style="stop-color:#66c0d1;stop-opacity:1;"/><stop offset="0.0351562" style="stop-color:#67c0d1;stop-opacity:1;"/><stop offset="0.0390625" style="stop-color:#68c0d0;stop-opacity:1;"/><stop offset="0.0429688" style="stop-color:#68c0d0;stop-opacity:1;"/><stop offset="0.046875" style="stop-color:#69c0d0;stop-opacity:1;"/><stop offset="0.0507812" style="stop-color:#69c1cf;stop-opacity:1;"/><stop offset="0.0546875" style="stop-color:#6ac1cf;stop-opacity:1;"/><stop offset="0.0585938" style="stop-color:#6ac1ce;stop-opacity:1;"/><stop offset="0.0625" style="stop-color:#6bc1ce;stop-opacity:1;"/><stop offset="0.0664062" style="stop-color:#6bc1ce;stop-opacity:1;"/><stop offset="0.0703125" style="stop-color:#6cc1cd;stop-opacity:1;"/><stop offset="0.0742188" style="stop-color:#6dc1cd;stop-opacity:1;"/><stop offset="0.078125" style="stop-color:#6dc1cd;stop-opacity:1;"/><stop offset="0.0820313" style="stop-color:#6ec1cc;stop-opacity:1;"/><stop offset="0.0859375" style="stop-color:#6ec2cc;stop-opacity:1;"/><stop offset="0.0898438" style="stop-color:#6fc2cb;stop-opacity:1;"/><stop offset="0.09375" style="stop-color:#6fc2cb;stop-opacity:1;"/><stop offset="0.0976563" style="stop-color:#70c2cb;stop-opacity:1;"/><stop offset="0.101563" style="stop-color:#70c2ca;stop-opacity:1;"/><stop offset="0.105469" style="stop-color:#71c2ca;stop-opacity:1;"/><stop offset="0.109375" style="stop-color:#72c2ca;stop-opacity:1;"/><stop offset="0.113281" style="stop-color:#72c2c9;stop-opacity:1;"/><stop offset="0.117188" style="stop-color:#73c3c9;stop-opacity:1;"/><stop offset="0.121094" style="stop-color:#73c3c9;stop-opacity:1;"/><stop offset="0.125" style="stop-color:#74c3c8;stop-opacity:1;"/><stop offset="0.128906" style="stop-color:#74c3c8;stop-opacity:1;"/><stop offset="0.132812" style="stop-color:#75c3c7;stop-opacity:1;"/><stop offset="0.136719" style="stop-color:#75c3c7;stop-opacity:1;"/><stop offset="0.140625" style="stop-color:#76c3c7;stop-opacity:1;"/><stop offset="0.144531" style="stop-color:#77c3c6;stop-opacity:1;"/><stop offset="0.148438" style="stop-color:#77c3c6;stop-opacity:1;"/><stop offset="0.152344" style="stop-color:#78c4c6;stop-opacity:1;"/><stop offset="0.15625" style="stop-color:#78c4c5;stop-opacity:1;"/><stop offset="0.160156" style="stop-color:#79c4c5;stop-opacity:1;"/><stop offset="0.164063" style="stop-color:#79c4c5;stop-opacity:1;"/><stop offset="0.167969" style="stop-color:#7ac4c4;stop-opacity:1;"/><stop offset="0.171875" style="stop-color:#7bc4c4;stop-opacity:1;"/><stop offset="0.175781" style="stop-color:#7bc4c3;stop-opacity:1;"/><stop offset="0.179688" style="stop-color:#7cc4c3;stop-opacity:1;"/><stop offset="0.183594" style="stop-color:#7cc5c3;stop-opacity:1;"/><stop offset="0.1875" style="stop-color:#7dc5c2;stop-opacity:1;"/><stop offset="0.191406" style="stop-color:#7dc5c2;stop-opacity:1;"/><stop offset="0.195313" style="stop-color:#7ec5c2;stop-opacity:1;"/><stop offset="0.199219" style="stop-color:#7ec5c1;stop-opacity:1;"/><stop offset="0.203125" style="stop-color:#7fc5c1;stop-opacity:1;"/><stop offset="0.207031" style="stop-color:#80c5c0;stop-opacity:1;"/><stop offset="0.210938" style="stop-color:#80c5c0;stop-opacity:1;"/><stop offset="0.214844" style="stop-color:#81c5c0;stop-opacity:1;"/><stop offset="0.21875" style="stop-color:#81c6bf;stop-opacity:1;"/><stop offset="0.222656" style="stop-color:#82c6bf;stop-opacity:1;"/><stop offset="0.226563" style="stop-color:#82c6bf;stop-opacity:1;"/><stop offset="0.230469" style="stop-color:#83c6be;stop-opacity:1;"/><stop offset="0.234375" style="stop-color:#83c6be;stop-opacity:1;"/><stop offset="0.238281" style="stop-color:#84c6be;stop-opacity:1;"/><stop offset="0.242188" style="stop-color:#85c6bd;stop-opacity:1;"/><stop offset="0.246094" style="stop-color:#85c6bd;stop-opacity:1;"/><stop offset="0.25" style="stop-color:#86c7bc;stop-opacity:1;"/><stop offset="0.253906" style="stop-color:#86c7bc;stop-opacity:1;"/><stop offset="0.257812" style="stop-color:#87c7bc;stop-opacity:1;"/><stop offset="0.261719" style="stop-color:#87c7bb;stop-opacity:1;"/><stop offset="0.265625" style="stop-color:#88c7bb;stop-opacity:1;"/><stop offset="0.269531" style="stop-color:#88c7bb;stop-opacity:1;"/><stop offset="0.273438" style="stop-color:#89c7ba;stop-opacity:1;"/><stop offset="0.277344" style="stop-color:#8ac7ba;stop-opacity:1;"/><stop offset="0.28125" style="stop-color:#8ac7ba;stop-opacity:1;"/><stop offset="0.285156" style="stop-color:#8bc8b9;stop-opacity:1;"/><stop offset="0.289062" style="stop-color:#8bc8b9;stop-opacity:1;"/><stop offset="0.292969" style="stop-color:#8cc8b8;stop-opacity:1;"/><stop offset="0.296875" style="stop-color:#8cc8b8;stop-opacity:1;"/><stop offset="0.300781" style="stop-color:#8dc8b8;stop-opacity:1;"/><stop offset="0.304688" style="stop-color:#8ec8b7;stop-opacity:1;"/><stop offset="0.308594" style="stop-color:#8ec8b7;stop-opacity:1;"/><stop offset="0.3125" style="stop-color:#8fc8b7;stop-opacity:1;"/><stop offset="0.316406" style="stop-color:#8fc9b6;stop-opacity:1;"/><stop offset="0.320312" style="stop-color:#90c9b6;stop-opacity:1;"/><stop offset="0.324219" style="stop-color:#90c9b5;stop-opacity:1;"/><stop offset="0.328125" style="stop-color:#91c9b5;stop-opacity:1;"/><stop offset="0.332031" style="stop-color:#91c9b5;stop-opacity:1;"/><stop offset="0.335938" style="stop-color:#92c9b4;stop-opacity:1;"/><stop offset="0.339844" style="stop-color:#93c9b4;stop-opacity:1;"/><stop offset="0.34375" style="stop-color:#93c9b4;stop-opacity:1;"/><stop offset="0.347656" style="stop-color:#94c9b3;stop-opacity:1;"/><stop offset="0.351562" style="stop-color:#94cab3;stop-opacity:1;"/><stop offset="0.355469" style="stop-color:#95cab3;stop-opacity:1;"/><stop offset="0.359375" style="stop-color:#95cab2;stop-opacity:1;"/><stop offset="0.363281" style="stop-color:#96cab2;stop-opacity:1;"/><stop offset="0.367188" style="stop-color:#96cab1;stop-opacity:1;"/><stop offset="0.371094" style="stop-color:#97cab1;stop-opacity:1;"/><stop offset="0.375" style="stop-color:#98cab1;stop-opacity:1;"/><stop offset="0.378906" style="stop-color:#98cab0;stop-opacity:1;"/><stop offset="0.382812" style="stop-color:#99cbb0;stop-opacity:1;"/><stop offset="0.386719" style="stop-color:#99cbb0;stop-opacity:1;"/><stop offset="0.390625" style="stop-color:#9acbaf;stop-opacity:1;"/><stop offset="0.394531" style="stop-color:#9acbaf;stop-opacity:1;"/><stop offset="0.398438" style="stop-color:#9bcbaf;stop-opacity:1;"/><stop offset="0.402344" style="stop-color:#9bcbae;stop-opacity:1;"/><stop offset="0.40625" style="stop-color:#9ccbae;stop-opacity:1;"/><stop offset="0.410156" style="stop-color:#9dcbad;stop-opacity:1;"/><stop offset="0.414062" style="stop-color:#9dcbad;stop-opacity:1;"/><stop offset="0.417969" style="stop-color:#9eccad;stop-opacity:1;"/><stop offset="0.421875" style="stop-color:#9eccac;stop-opacity:1;"/><stop offset="0.425781" style="stop-color:#9fccac;stop-opacity:1;"/><stop offset="0.429688" style="stop-color:#9fccac;stop-opacity:1;"/><stop offset="0.433594" style="stop-color:#a0ccab;stop-opacity:1;"/><stop offset="0.4375" style="stop-color:#a1ccab;stop-opacity:1;"/><stop offset="0.441406" style="stop-color:#a1ccaa;stop-opacity:1;"/><stop offset="0.445312" style="stop-color:#a2ccaa;stop-opacity:1;"/><stop offset="0.449219" style="stop-color:#a2cdaa;stop-opacity:1;"/><stop offset="0.453125" style="stop-color:#a3cda9;stop-opacity:1;"/><stop offset="0.457031" style="stop-color:#a3cda9;stop-opacity:1;"/><stop offset="0.460938" style="stop-color:#a4cda9;stop-opacity:1;"/><stop offset="0.464844" style="stop-color:#a4cda8;stop-opacity:1;"/><stop offset="0.46875" style="stop-color:#a5cda8;stop-opacity:1;"/><stop offset="0.472656" style="stop-color:#a6cda8;stop-opacity:1;"/><stop offset="0.476562" style="stop-color:#a6cda7;stop-opacity:1;"/><stop offset="0.480469" style="stop-color:#a7cda7;stop-opacity:1;"/><stop offset="0.484375" style="stop-color:#a7cea6;stop-opacity:1;"/><stop offset="0.488281" style="stop-color:#a8cea6;stop-opacity:1;"/><stop offset="0.492188" style="stop-color:#a8cea6;stop-opacity:1;"/><stop offset="0.496094" style="stop-color:#a9cea5;stop-opacity:1;"/><stop offset="0.5" style="stop-color:#a9cea5;stop-opacity:1;"/><stop offset="0.503906" style="stop-color:#aacea5;stop-opacity:1;"/><stop offset="0.507812" style="stop-color:#abcea4;stop-opacity:1;"/><stop offset="0.511719" style="stop-color:#abcea4;stop-opacity:1;"/><stop offset="0.515625" style="stop-color:#accfa4;stop-opacity:1;"/><stop offset="0.519531" style="stop-color:#accfa3;stop-opacity:1;"/><stop offset="0.523438" style="stop-color:#adcfa3;stop-opacity:1;"/><stop offset="0.527344" style="stop-color:#adcfa2;stop-opacity:1;"/><stop offset="0.53125" style="stop-color:#aecfa2;stop-opacity:1;"/><stop offset="0.535156" style="stop-color:#aecfa2;stop-opacity:1;"/><stop offset="0.539062" style="stop-color:#afcfa1;stop-opacity:1;"/><stop offset="0.542969" style="stop-color:#b0cfa1;stop-opacity:1;"/><stop offset="0.546875" style="stop-color:#b0cfa1;stop-opacity:1;"/><stop offset="0.550781" style="stop-color:#b1d0a0;stop-opacity:1;"/><stop offset="0.554688" style="stop-color:#b1d0a0;stop-opacity:1;"/><stop offset="0.558594" style="stop-color:#b2d09f;stop-opacity:1;"/><stop offset="0.5625" style="stop-color:#b2d09f;stop-opacity:1;"/><stop offset="0.566406" style="stop-color:#b3d09f;stop-opacity:1;"/><stop offset="0.570312" style="stop-color:#b4d09e;stop-opacity:1;"/><stop offset="0.574219" style="stop-color:#b4d09e;stop-opacity:1;"/><stop offset="0.578125" style="stop-color:#b5d09e;stop-opacity:1;"/><stop offset="0.582031" style="stop-color:#b5d19d;stop-opacity:1;"/><stop offset="0.585938" style="stop-color:#b6d19d;stop-opacity:1;"/><stop offset="0.589844" style="stop-color:#b6d19d;stop-opacity:1;"/><stop offset="0.59375" style="stop-color:#b7d19c;stop-opacity:1;"/><stop offset="0.597656" style="stop-color:#b7d19c;stop-opacity:1;"/><stop offset="0.601562" style="stop-color:#b8d19b;stop-opacity:1;"/><stop offset="0.605469" style="stop-color:#b9d19b;stop-opacity:1;"/><stop offset="0.609375" style="stop-color:#b9d19b;stop-opacity:1;"/><stop offset="0.613281" style="stop-color:#bad19a;stop-opacity:1;"/><stop offset="0.617188" style="stop-color:#bad29a;stop-opacity:1;"/><stop offset="0.621094" style="stop-color:#bbd29a;stop-opacity:1;"/><stop offset="0.625" style="stop-color:#bbd299;stop-opacity:1;"/><stop offset="0.628906" style="stop-color:#bcd299;stop-opacity:1;"/><stop offset="0.632812" style="stop-color:#bcd299;stop-opacity:1;"/><stop offset="0.636719" style="stop-color:#bdd298;stop-opacity:1;"/><stop offset="0.640625" style="stop-color:#bed298;stop-opacity:1;"/><stop offset="0.644531" style="stop-color:#bed297;stop-opacity:1;"/><stop offset="0.648438" style="stop-color:#bfd397;stop-opacity:1;"/><stop offset="0.652344" style="stop-color:#bfd397;stop-opacity:1;"/><stop offset="0.65625" style="stop-color:#c0d396;stop-opacity:1;"/><stop offset="0.660156" style="stop-color:#c0d396;stop-opacity:1;"/><stop offset="0.664062" style="stop-color:#c1d396;stop-opacity:1;"/><stop offset="0.667969" style="stop-color:#c1d395;stop-opacity:1;"/><stop offset="0.671875" style="stop-color:#c2d395;stop-opacity:1;"/><stop offset="0.675781" style="stop-color:#c3d394;stop-opacity:1;"/><stop offset="0.679688" style="stop-color:#c3d394;stop-opacity:1;"/><stop offset="0.683594" style="stop-color:#c4d494;stop-opacity:1;"/><stop offset="0.6875" style="stop-color:#c4d493;stop-opacity:1;"/><stop offset="0.691406" style="stop-color:#c5d493;stop-opacity:1;"/><stop offset="0.695312" style="stop-color:#c5d493;stop-opacity:1;"/><stop offset="0.699219" style="stop-color:#c6d492;stop-opacity:1;"/><stop offset="0.703125" style="stop-color:#c7d492;stop-opacity:1;"/><stop offset="0.707031" style="stop-color:#c7d492;stop-opacity:1;"/><stop offset="0.710938" style="stop-color:#c8d491;stop-opacity:1;"/><stop offset="0.714844" style="stop-color:#c8d591;stop-opacity:1;"/><stop offset="0.71875" style="stop-color:#c9d590;stop-opacity:1;"/><stop offset="0.722656" style="stop-color:#c9d590;stop-opacity:1;"/><stop offset="0.726562" style="stop-color:#cad590;stop-opacity:1;"/><stop offset="0.730469" style="stop-color:#cad58f;stop-opacity:1;"/><stop offset="0.734375" style="stop-color:#cbd58f;stop-opacity:1;"/><stop offset="0.738281" style="stop-color:#ccd58f;stop-opacity:1;"/><stop offset="0.742188" style="stop-color:#ccd58e;stop-opacity:1;"/><stop offset="0.746094" style="stop-color:#cdd58e;stop-opacity:1;"/><stop offset="0.75" style="stop-color:#cdd68e;stop-opacity:1;"/><stop offset="0.753906" style="stop-color:#ced68d;stop-opacity:1;"/><stop offset="0.757812" style="stop-color:#ced68d;stop-opacity:1;"/><stop offset="0.761719" style="stop-color:#cfd68c;stop-opacity:1;"/><stop offset="0.765625" style="stop-color:#cfd68c;stop-opacity:1;"/><stop offset="0.769531" style="stop-color:#d0d68c;stop-opacity:1;"/><stop offset="0.773438" style="stop-color:#d1d68b;stop-opacity:1;"/><stop offset="0.777344" style="stop-color:#d1d68b;stop-opacity:1;"/><stop offset="0.78125" style="stop-color:#d2d78b;stop-opacity:1;"/><stop offset="0.785156" style="stop-color:#d2d78a;stop-opacity:1;"/><stop offset="0.789062" style="stop-color:#d3d78a;stop-opacity:1;"/><stop offset="0.792969" style="stop-color:#d3d789;stop-opacity:1;"/><stop offset="0.796875" style="stop-color:#d4d789;stop-opacity:1;"/><stop offset="0.800781" style="stop-color:#d4d789;stop-opacity:1;"/><stop offset="0.804688" style="stop-color:#d5d788;stop-opacity:1;"/><stop offset="0.808594" style="stop-color:#d6d788;stop-opacity:1;"/><stop offset="0.8125" style="stop-color:#d6d788;stop-opacity:1;"/><stop offset="0.816406" style="stop-color:#d7d887;stop-opacity:1;"/><stop offset="0.820312" style="stop-color:#d7d887;stop-opacity:1;"/><stop offset="0.824219" style="stop-color:#d8d887;stop-opacity:1;"/><stop offset="0.828125" style="stop-color:#d8d886;stop-opacity:1;"/><stop offset="0.832031" style="stop-color:#d9d886;stop-opacity:1;"/><stop offset="0.835938" style="stop-color:#dad885;stop-opacity:1;"/><stop offset="0.839844" style="stop-color:#dad885;stop-opacity:1;"/><stop offset="0.84375" style="stop-color:#dbd885;stop-opacity:1;"/><stop offset="0.847656" style="stop-color:#dbd884;stop-opacity:1;"/><stop offset="0.851562" style="stop-color:#dcd984;stop-opacity:1;"/><stop offset="0.855469" style="stop-color:#dcd984;stop-opacity:1;"/><stop offset="0.859375" style="stop-color:#ddd983;stop-opacity:1;"/><stop offset="0.863281" style="stop-color:#ddd983;stop-opacity:1;"/><stop offset="0.867188" style="stop-color:#ded983;stop-opacity:1;"/><stop offset="0.871094" style="stop-color:#dfd982;stop-opacity:1;"/><stop offset="0.875" style="stop-color:#dfd982;stop-opacity:1;"/><stop offset="0.878906" style="stop-color:#e0d981;stop-opacity:1;"/><stop offset="0.882812" style="stop-color:#e0da81;stop-opacity:1;"/><stop offset="0.886719" style="stop-color:#e1da81;stop-opacity:1;"/><stop offset="0.890625" style="stop-color:#e1da80;stop-opacity:1;"/><stop offset="0.894531" style="stop-color:#e2da80;stop-opacity:1;"/><stop offset="0.898438" style="stop-color:#e2da80;stop-opacity:1;"/><stop offset="0.902344" style="stop-color:#e3da7f;stop-opacity:1;"/><stop offset="0.90625" style="stop-color:#e4da7f;stop-opacity:1;"/><stop offset="0.910156" style="stop-color:#e4da7e;stop-opacity:1;"/><stop offset="0.914062" style="stop-color:#e5da7e;stop-opacity:1;"/><stop offset="0.917969" style="stop-color:#e5db7e;stop-opacity:1;"/><stop offset="0.921875" style="stop-color:#e6db7d;stop-opacity:1;"/><stop offset="0.925781" style="stop-color:#e6db7d;stop-opacity:1;"/><stop offset="0.929688" style="stop-color:#e7db7d;stop-opacity:1;"/><stop offset="0.933594" style="stop-color:#e7db7c;stop-opacity:1;"/><stop offset="0.9375" style="stop-color:#e8db7c;stop-opacity:1;"/><stop offset="0.941406" style="stop-color:#e9db7c;stop-opacity:1;"/><stop offset="0.945312" style="stop-color:#e9db7b;stop-opacity:1;"/><stop offset="0.949219" style="stop-color:#eadc7b;stop-opacity:1;"/><stop offset="0.953125" style="stop-color:#eadc7a;stop-opacity:1;"/><stop offset="0.957031" style="stop-color:#ebdc7a;stop-opacity:1;"/><stop offset="0.960938" style="stop-color:#ebdc7a;stop-opacity:1;"/><stop offset="0.964844" style="stop-color:#ecdc79;stop-opacity:1;"/><stop offset="0.96875" style="stop-color:#eddc79;stop-opacity:1;"/><stop offset="0.972656" style="stop-color:#eddc79;stop-opacity:1;"/><stop offset="0.976562" style="stop-color:#eedc78;stop-opacity:1;"/><stop offset="0.980469" style="stop-color:#eedc78;stop-opacity:1;"/><stop offset="0.984375" style="stop-color:#efdd78;stop-opacity:1;"/><stop offset="0.988281" style="stop-color:#efdd77;stop-opacity:1;"/><stop offset="0.992188" style="stop-color:#f0dd77;stop-opacity:1;"/><stop offset="0.996094" style="stop-color:#f0dd76;stop-opacity:1;"/><stop offset="1" style="stop-color:#f1dd76;stop-opacity:1;"/></linearGradient></defs><g id="437b9c4e13"><g style="fill:#000000;fill-opacity:1;"><g transform="translate(37.500002, 224.200849)"><path d="M 35.09375 -12.109375 C 35.695312 -12.109375 36 -11.835938 36 -11.296875 L 36 -0.734375 C 36 -0.242188 35.695312 0 35.09375 0 L 0.890625 0 C 0.296875 0 0 -0.242188 0 -0.734375 L 0 -12.109375 Z M 12.4375 -24.53125 L 0 -24.53125 L 0 -64.265625 C 0 -64.753906 0.296875 -65 0.890625 -65 L 11.625 -65 C 12.164062 -65 12.4375 -64.753906 12.4375 -64.265625 Z M 12.4375 -24.53125" style="stroke:none"/></g></g><g style="fill:#000000;fill-opacity:1;"><g transform="translate(75.365026, 224.200849)"><path d="M 53.78125 -65 C 54.382812 -65 54.6875 -64.753906 54.6875 -64.265625 L 54.6875 -0.734375 C 54.6875 -0.242188 54.382812 0 53.78125 0 L 43.0625 0 C 43.007812 0 42.882812 -0.0234375 42.6875 -0.078125 C 42.5 -0.128906 42.378906 -0.1875 42.328125 -0.25 L 12.4375 -43.0625 L 12.4375 -15.59375 L 0 -15.59375 L 0 -64.265625 C 0 -64.753906 0.269531 -65 0.8125 -65 L 11.625 -65 C 11.726562 -65 11.859375 -64.984375 12.015625 -64.953125 C 12.179688 -64.929688 12.289062 -64.863281 12.34375 -64.75 L 42.328125 -21.9375 L 42.328125 -64.265625 C 42.328125 -64.753906 42.65625 -65 43.3125 -65 Z M 53.78125 -65" style="stroke:none"/></g></g><g style="fill:#000000;fill-opacity:1;"><g transform="translate(132.812599, 224.200849)"><path d="M 51.84375 -1.21875 C 52.113281 -0.894531 52.164062 -0.609375 52 -0.359375 C 51.832031 -0.117188 51.535156 0 51.109375 0 L 37.125 0 C 36.800781 0 36.5625 -0.0820312 36.40625 -0.25 L 17.46875 -23.640625 C 17.195312 -23.367188 16.585938 -22.703125 15.640625 -21.640625 C 14.691406 -20.585938 13.550781 -19.316406 12.21875 -17.828125 C 10.894531 -16.335938 9.53125 -14.796875 8.125 -13.203125 C 6.71875 -11.609375 5.390625 -10.101562 4.140625 -8.6875 C 2.898438 -7.28125 1.898438 -6.144531 1.140625 -5.28125 C 0.378906 -4.414062 0 -3.984375 0 -3.984375 L 0 -64.265625 C 0 -64.753906 0.296875 -65 0.890625 -65 L 11.625 -65 C 12.164062 -65 12.4375 -64.753906 12.4375 -64.265625 L 12.4375 -34.6875 L 36.890625 -64.75 C 37.046875 -64.914062 37.289062 -65 37.625 -65 L 50.859375 -65 C 51.296875 -65 51.59375 -64.863281 51.75 -64.59375 C 51.914062 -64.320312 51.863281 -64.050781 51.59375 -63.78125 L 25.75 -31.9375 Z M 51.84375 -1.21875" style="stroke:none"/></g></g><g clip-path="url(#2015c42377)" clip-rule="nonzero"><path d="M 37.511719 184.472656 L 49.933594 184.472656 L 49.933594 213.542969 L 37.511719 213.542969 Z M 37.511719 184.472656" style="stroke:none;fill-rule:nonzero;fill:#000000;fill-opacity:1;"/></g><g clip-path="url(#8d4e82dcc0)" clip-rule="nonzero"><g clip-path="url(#df18e62581)" clip-rule="nonzero"><path d="M 166.90625 144.503906 L 166.90625 166.167969 L 192.117188 166.167969 L 192.117188 144.503906 Z M 166.90625 144.503906" style="stroke:none;fill-rule:nonzero;fill:url(#c65f6f8cf4);"/></g></g><g style="fill:#000000;fill-opacity:1;"><g transform="translate(187.511442, 222.935505)"><path d="M 5.890625 -10.328125 L 5.890625 -2.125 L 17.0625 -2.125 L 17.0625 0 L 3.3125 0 L 3.3125 -21.921875 L 16.828125 -21.921875 L 16.828125 -19.796875 L 5.890625 -19.796875 L 5.890625 -12.453125 L 15.53125 -12.453125 L 15.53125 -10.328125 Z M 5.890625 -10.328125" style="stroke:none"/></g></g><g style="fill:#000000;fill-opacity:1;"><g transform="translate(206.016633, 222.935505)"><path d="M 5.828125 0 L 3.3125 0 L 3.3125 -21.921875 L 6.46875 -21.921875 L 17.171875 -5.171875 L 17.546875 -5.234375 L 17.546875 -21.921875 L 20.046875 -21.921875 L 20.046875 0 L 17.34375 0 L 6.203125 -17.921875 L 5.828125 -17.859375 Z M 5.828125 0" style="stroke:none"/></g></g><g style="fill:#000000;fill-opacity:1;"><g transform="translate(229.376625, 222.935505)"><path d="M 5.890625 -10.328125 L 5.890625 -2.125 L 17.0625 -2.125 L 17.0625 0 L 3.3125 0 L 3.3125 -21.921875 L 16.828125 -21.921875 L 16.828125 -19.796875 L 5.890625 -19.796875 L 5.890625 -12.453125 L 15.53125 -12.453125 L 15.53125 -10.328125 Z M 5.890625 -10.328125" style="stroke:none"/></g></g><g style="fill:#000000;fill-opacity:1;"><g transform="translate(247.881817, 222.935505)"><path d="M 3.3125 0 L 3.3125 -21.921875 L 11.28125 -21.921875 C 12.75 -21.921875 13.976562 -21.675781 14.96875 -21.1875 C 15.96875 -20.707031 16.71875 -20.023438 17.21875 -19.140625 C 17.71875 -18.253906 17.96875 -17.207031 17.96875 -16 C 17.96875 -14.632812 17.628906 -13.507812 16.953125 -12.625 C 16.273438 -11.738281 15.21875 -11.078125 13.78125 -10.640625 L 13.78125 -10.328125 C 14.488281 -10.046875 15.066406 -9.601562 15.515625 -9 C 15.960938 -8.40625 16.378906 -7.515625 16.765625 -6.328125 L 18.78125 0 L 16.125 0 L 13.9375 -6.703125 C 13.675781 -7.492188 13.375 -8.113281 13.03125 -8.5625 C 12.695312 -9.007812 12.269531 -9.332031 11.75 -9.53125 C 11.226562 -9.726562 10.570312 -9.828125 9.78125 -9.828125 L 5.890625 -9.828125 L 5.890625 0 Z M 11.21875 -12.015625 C 12.582031 -12.015625 13.597656 -12.332031 14.265625 -12.96875 C 14.941406 -13.601562 15.28125 -14.570312 15.28125 -15.875 C 15.28125 -17.175781 14.941406 -18.144531 14.265625 -18.78125 C 13.597656 -19.414062 12.582031 -19.734375 11.21875 -19.734375 L 5.890625 -19.734375 L 5.890625 -12.015625 Z M 11.21875 -12.015625" style="stroke:none"/></g></g><g style="fill:#000000;fill-opacity:1;"><g transform="translate(268.17009, 222.935505)"><path d="M 11.53125 0.3125 C 9.6875 0.3125 8.0625 -0.101562 6.65625 -0.9375 C 5.257812 -1.78125 4.164062 -3.046875 3.375 -4.734375 C 2.582031 -6.421875 2.1875 -8.492188 2.1875 -10.953125 C 2.1875 -13.410156 2.609375 -15.484375 3.453125 -17.171875 C 4.296875 -18.867188 5.46875 -20.132812 6.96875 -20.96875 C 8.46875 -21.8125 10.195312 -22.234375 12.15625 -22.234375 C 14.257812 -22.234375 15.984375 -21.851562 17.328125 -21.09375 C 18.679688 -20.34375 19.632812 -19.21875 20.1875 -17.71875 L 18.515625 -16.734375 L 18.140625 -16.734375 C 17.566406 -17.867188 16.796875 -18.679688 15.828125 -19.171875 C 14.859375 -19.671875 13.632812 -19.921875 12.15625 -19.921875 C 7.351562 -19.921875 4.953125 -16.929688 4.953125 -10.953125 C 4.953125 -7.847656 5.554688 -5.582031 6.765625 -4.15625 C 7.972656 -2.726562 9.664062 -2.015625 11.84375 -2.015625 C 13.84375 -2.015625 15.335938 -2.46875 16.328125 -3.375 C 17.328125 -4.28125 17.828125 -5.710938 17.828125 -7.671875 L 17.828125 -9.609375 L 11.59375 -9.609375 L 11.59375 -11.671875 L 20.328125 -11.671875 L 20.328125 0 L 17.9375 0 L 17.9375 -2.9375 L 17.625 -3.015625 C 17.050781 -1.878906 16.242188 -1.039062 15.203125 -0.5 C 14.171875 0.0390625 12.945312 0.3125 11.53125 0.3125 Z M 11.53125 0.3125" style="stroke:none"/></g></g><g style="fill:#000000;fill-opacity:1;"><g transform="translate(290.9457, 222.935505)"><path d="M 5.890625 0 L 3.3125 0 L 3.3125 -21.921875 L 5.890625 -21.921875 Z M 5.890625 0" style="stroke:none"/></g></g><g style="fill:#000000;fill-opacity:1;"><g transform="translate(300.16084, 222.935505)"><path d="M 5.890625 -10.328125 L 5.890625 -2.125 L 17.0625 -2.125 L 17.0625 0 L 3.3125 0 L 3.3125 -21.921875 L 16.828125 -21.921875 L 16.828125 -19.796875 L 5.890625 -19.796875 L 5.890625 -12.453125 L 15.53125 -12.453125 L 15.53125 -10.328125 Z M 5.890625 -10.328125" style="stroke:none"/></g></g><g style="fill:#000000;fill-opacity:1;"><g transform="translate(318.666031, 222.935505)"><path d="M 9.578125 0.3125 C 8.203125 0.3125 6.96875 0.125 5.875 -0.25 C 4.78125 -0.625 3.863281 -1.113281 3.125 -1.71875 C 2.394531 -2.332031 1.851562 -3.003906 1.5 -3.734375 L 2.90625 -5.4375 L 3.28125 -5.4375 C 4.644531 -3.15625 6.742188 -2.015625 9.578125 -2.015625 C 11.222656 -2.015625 12.445312 -2.359375 13.25 -3.046875 C 14.0625 -3.734375 14.46875 -4.691406 14.46875 -5.921875 C 14.46875 -6.640625 14.332031 -7.25 14.0625 -7.75 C 13.800781 -8.25 13.363281 -8.675781 12.75 -9.03125 C 12.144531 -9.382812 11.316406 -9.691406 10.265625 -9.953125 L 7.703125 -10.578125 C 5.796875 -11.046875 4.390625 -11.78125 3.484375 -12.78125 C 2.578125 -13.78125 2.125 -15.050781 2.125 -16.59375 C 2.125 -17.6875 2.40625 -18.660156 2.96875 -19.515625 C 3.53125 -20.367188 4.347656 -21.035156 5.421875 -21.515625 C 6.503906 -21.992188 7.796875 -22.234375 9.296875 -22.234375 C 10.941406 -22.234375 12.332031 -22 13.46875 -21.53125 C 14.601562 -21.070312 15.507812 -20.375 16.1875 -19.4375 L 14.9375 -17.75 L 14.5625 -17.75 C 13.925781 -18.519531 13.175781 -19.082031 12.3125 -19.4375 C 11.457031 -19.800781 10.453125 -19.984375 9.296875 -19.984375 C 7.773438 -19.984375 6.625 -19.6875 5.84375 -19.09375 C 5.070312 -18.507812 4.6875 -17.695312 4.6875 -16.65625 C 4.6875 -15.664062 4.972656 -14.878906 5.546875 -14.296875 C 6.117188 -13.710938 7.078125 -13.257812 8.421875 -12.9375 L 11.046875 -12.3125 C 13.171875 -11.8125 14.710938 -11.039062 15.671875 -10 C 16.628906 -8.96875 17.109375 -7.648438 17.109375 -6.046875 C 17.109375 -4.804688 16.828125 -3.707031 16.265625 -2.75 C 15.710938 -1.789062 14.867188 -1.039062 13.734375 -0.5 C 12.609375 0.0390625 11.222656 0.3125 9.578125 0.3125 Z M 9.578125 0.3125" style="stroke:none"/></g></g></g></svg>