<svg overflow="hidden" xmlns:xlink="http://www.w3.org/1999/xlink" xmlns="http://www.w3.org/2000/svg" viewBox="71.3738942632171 114.582816 1140.337457817773 437.76" style="max-height: 500px" width="1140.337457817773" height="437.76"><g><rect fill-opacity="0" fill="#FFFFFF" height="720" width="1280" y="0" x="0"/><text transform="translate(523.939 493)" font-size="24" font-weight="400" font-family="Poppins,Poppins_MSFontService,sans-serif" fill="#343A3F">De</text><text transform="translate(555.773 493)" font-size="24" font-weight="400" font-family="Poppins,Poppins_MSFontService,sans-serif" fill="#343A3F">-</text><text transform="translate(568.939 493)" font-size="24" font-weight="400" font-family="Poppins,Poppins_MSFontService,sans-serif" fill="#343A3F">hydrogenation</text><text transform="translate(564.939 517)" font-size="19" font-weight="400" font-family="Poppins,Poppins_MSFontService,sans-serif" fill="#343A3F">(when heated)</text><text transform="translate(550.833 167)" font-size="24" font-weight="400" font-family="Poppins,Poppins_MSFontService,sans-serif" fill="#343A3F">Hydrogenation</text><text transform="translate(602.023 215)" font-size="32" font-weight="700" font-family="Poppins,Poppins_MSFontService,sans-serif" fill="#00B0F0">+ H</text><text transform="translate(655.523 222)" font-size="21" font-weight="700" font-family="Poppins,Poppins_MSFontService,sans-serif" fill="#00B0F0">2</text><text transform="translate(918.025 429)" font-size="24" font-weight="400" font-family="Poppins,Poppins_MSFontService,sans-serif" fill="#343A3F">LOHC</text><text transform="translate(988.692 429)" font-size="24" font-weight="400" font-family="Poppins,Poppins_MSFontService,sans-serif" fill="#343A3F">with</text><text transform="translate(1044.53 429)" font-size="24" font-weight="400" font-family="Poppins,Poppins_MSFontService,sans-serif" fill="#343A3F">H</text><text transform="translate(1061.19 434)" font-size="16" font-weight="400" font-family="Poppins,Poppins_MSFontService,sans-serif" fill="#343A3F">2</text><path fill-rule="evenodd" fill="none" stroke-miterlimit="10" stroke-linejoin="round" stroke-width="2" stroke="#343A3F" d="M463 321C463 279.026 540.007 245 635 245 729.993 245 807 279.026 807 321 807 362.974 729.993 397 635 397 540.007 397 463 362.974 463 321Z"/><rect fill="#FFFEFB" height="80" width="386" y="281" x="442"/><path fill-rule="evenodd" fill="none" stroke-miterlimit="10" stroke-linejoin="round" stroke-width="2" stroke="#343A3F" d="M781.278 281.127 776 247"/><path transform="matrix(-1 0 0 1 781.886 281)" fill-rule="evenodd" fill="none" stroke-miterlimit="10" stroke-linejoin="round" stroke-width="2" stroke="#343A3F" d="M0 0 31.8858 7.08577"/><path fill-rule="evenodd" fill="none" stroke-miterlimit="10" stroke-linejoin="round" stroke-width="2" stroke="#343A3F" d="M488.302 360.648 490.733 395.097"/><path transform="matrix(0.996558 0.0828966 0.0828966 -0.996558 487.884 361.533)" fill-rule="evenodd" fill="none" stroke-miterlimit="10" stroke-linejoin="round" stroke-width="2" stroke="#343A3F" d="M0 0 31.8872 7.08598"/><text transform="translate(606.773 450)" font-size="32" font-weight="700" font-family="Arial,Arial_MSFontService,sans-serif" fill="#00B0F0">-</text><text transform="translate(626.273 450)" font-size="32" font-weight="700" font-family="Poppins,Poppins_MSFontService,sans-serif" fill="#00B0F0">H</text><text transform="translate(650.773 457)" font-size="21" font-weight="700" font-family="Poppins,Poppins_MSFontService,sans-serif" fill="#00B0F0">2</text><path fill-rule="evenodd" fill="#FFFFFF" d="M129.03 264.037 136.364 257.31 146.168 267.997 138.834 274.724Z"/><text transform="translate(180.03 429)" font-size="24" font-weight="400" font-family="Poppins,Poppins_MSFontService,sans-serif" fill="#343A3F">LOHC without H</text><text transform="translate(362.53 434)" font-size="16" font-weight="400" font-family="Poppins,Poppins_MSFontService,sans-serif" fill="#343A3F">2</text><path fill-rule="evenodd" fill="none" stroke-miterlimit="8" stroke-width="2" stroke="#343A3F" d="M106.739 290.537 151.621 266.056 193.805 290.748 194.436 341.869 149.554 366.349 107.37 341.658Z"/><path fill-rule="evenodd" fill="#FFFFFF" d="M193.563 287.194 151.454 355.617 112.74 331.791 154.849 263.369Z"/><rect fill="#FFFFFF" height="46" width="80" y="295" x="101"/><path fill-rule="evenodd" fill="#FFFFFF" d="M146.241 368.894 150.194 362.258 156.21 365.841 152.257 372.477Z"/><path fill-rule="evenodd" fill="#FFFFFF" d="M99.518 341.285 103.471 334.649 109.486 338.232 105.533 344.868Z"/><rect fill="#FFFFFF" height="7" width="8" y="341" x="189"/><rect fill="#FFFFFF" height="7" width="8" y="284" x="189"/><path fill-rule="evenodd" fill="#FFFFFF" d="M106.382 287.98 110.058 294.773 103.901 298.105 100.224 291.312Z"/><path fill-rule="evenodd" fill="#FFFFFF" d="M151.965 269.345 148.31 262.54 154.478 259.227 158.133 266.032Z"/><path fill-rule="evenodd" fill="#FFFFFF" d="M167.248 379.15 132.287 343.35 162.252 314.087 197.213 349.888Z"/><path fill-rule="evenodd" fill="none" stroke-miterlimit="8" stroke-width="2" stroke="#343A3F" d="M319.066 290.366 363.949 265.885 406.133 290.576 406.764 341.697 361.881 366.178 319.697 341.486Z"/><path fill-rule="evenodd" fill="#FFFFFF" d="M353.659 255.749 386.949 294.056 351.842 324.566 318.551 286.259Z"/><path fill-rule="evenodd" fill="#FFFFFF" d="M367.864 357.331 345.08 381.629 312.688 351.256 335.472 326.957Z"/><path fill-rule="evenodd" fill="#FFFFFF" d="M408.852 336.982 411.15 341.396 406.892 343.612 404.594 339.197Z"/><path fill-rule="evenodd" fill="#FFFFFF" d="M361.54 363.295 364.181 367.513 360.113 370.061 357.472 365.843Z"/><rect fill="#FFFFFF" height="5" width="5" y="341" x="317"/><rect fill="#FFFFFF" height="5" width="5" y="286" x="317"/><path fill-rule="evenodd" fill="#FFFFFF" d="M404.169 292.585 406.876 288.409 410.903 291.02 408.196 295.196Z"/><path fill-rule="evenodd" fill="#FFFFFF" d="M359.548 265.868 362.255 261.692 366.282 264.303 363.575 268.479Z"/><rect fill="#FFFFFF" height="46" width="59" y="293" x="367"/><path fill-rule="evenodd" fill="none" stroke-miterlimit="8" stroke-width="2" stroke="#343A3F" d="M201.783 284.366 257.195 254.143 309.275 284.626 310.054 347.74 254.642 377.963 202.562 347.48Z"/><rect fill="#FFFFFF" height="95" width="116" y="286" x="198"/><path fill-rule="evenodd" fill="#FFFFFF" d="M200.763 278.782 204.867 287.848 199.255 290.389 195.15 281.323Z"/><path fill-rule="evenodd" fill="none" stroke-miterlimit="8" stroke-width="2" stroke="#343A3F" d="M96.4635 283.219 151.875 252.995 203.955 283.479 204.734 346.592 149.323 376.816 97.2426 346.332Z"/><path fill-rule="evenodd" fill="none" stroke-miterlimit="8" stroke-width="2" stroke="#343A3F" d="M309.156 284.366 364.567 254.142 416.648 284.626 417.427 347.74 362.015 377.963 309.935 347.479Z"/><path fill-rule="evenodd" fill="none" stroke-miterlimit="8" stroke-width="2" stroke="#343A3F" d="M417 348 463.428 373.601"/><path fill-rule="evenodd" fill="#FFFFFF" d="M911.891 287.194 869.783 355.617 831.069 331.791 873.177 263.369Z"/><rect fill="#FFFFFF" height="46" width="81" y="295" x="819"/><path fill-rule="evenodd" fill="#FFFFFF" d="M864.57 368.894 868.523 362.258 874.538 365.841 870.585 372.477Z"/><path fill-rule="evenodd" fill="#FFFFFF" d="M817.847 341.285 821.8 334.649 827.815 338.232 823.862 344.868Z"/><rect fill="#FFFFFF" height="7" width="7" y="341" x="908"/><rect fill="#FFFFFF" height="7" width="8" y="284" x="907"/><path fill-rule="evenodd" fill="#FFFFFF" d="M824.711 287.98 828.387 294.773 822.229 298.105 818.553 291.312Z"/><path fill-rule="evenodd" fill="#FFFFFF" d="M870.293 269.345 866.639 262.54 872.807 259.227 876.462 266.032Z"/><path fill-rule="evenodd" fill="#FFFFFF" d="M885.577 379.15 850.616 343.35 880.581 314.087 915.542 349.888Z"/><path fill-rule="evenodd" fill="#FFFFFF" d="M1071.99 255.749 1105.28 294.056 1070.17 324.566 1036.88 286.259Z"/><path fill-rule="evenodd" fill="#FFFFFF" d="M1086.19 357.331 1063.41 381.629 1031.02 351.256 1053.8 326.957Z"/><path fill-rule="evenodd" fill="#FFFFFF" d="M1127.18 336.982 1129.48 341.396 1125.22 343.612 1122.92 339.197Z"/><path fill-rule="evenodd" fill="#FFFFFF" d="M1079.87 363.295 1082.51 367.513 1078.44 370.061 1075.8 365.843Z"/><rect fill="#FFFFFF" height="5" width="5" y="341" x="1036"/><rect fill="#FFFFFF" height="5" width="5" y="286" x="1035"/><path fill-rule="evenodd" fill="#FFFFFF" d="M1122.5 292.585 1125.2 288.409 1129.23 291.02 1126.53 295.196Z"/><path fill-rule="evenodd" fill="#FFFFFF" d="M1077.88 265.868 1080.58 261.692 1084.61 264.303 1081.9 268.479Z"/><rect fill="#FFFFFF" height="46" width="60" y="293" x="1085"/><path fill-rule="evenodd" fill="none" stroke-miterlimit="8" stroke-width="2" stroke="#343A3F" d="M920.112 284.366 975.524 254.143 1027.6 284.626 1028.38 347.74 972.971 377.963 920.891 347.48Z"/><rect fill="#FFFFFF" height="95" width="117" y="286" x="916"/><path fill-rule="evenodd" fill="#FFFFFF" d="M919.092 278.782 923.196 287.848 917.583 290.389 913.479 281.323Z"/><path fill-rule="evenodd" fill="none" stroke-miterlimit="8" stroke-width="2" stroke="#343A3F" d="M814.792 283.219 870.204 252.995 922.284 283.479 923.063 346.592 867.652 376.816 815.571 346.332Z"/><path fill-rule="evenodd" fill="none" stroke-miterlimit="8" stroke-width="2" stroke="#343A3F" d="M1027.48 284.366 1082.9 254.142 1134.98 284.626 1135.76 347.74 1080.34 377.963 1028.26 347.479Z"/><path fill-rule="evenodd" fill="none" stroke-miterlimit="8" stroke-width="2" stroke="#343A3F" d="M1136 348 1182.43 373.601"/></g></svg>